<svg width="64" height="64" viewBox="0 0 64 64" fill="none" xmlns="http://www.w3.org/2000/svg">
<path fill-rule="evenodd" clip-rule="evenodd" d="M31.3787 11.8787C32.5503 10.7071 34.4497 10.7071 35.6213 11.8787L53.6213 29.8787C54.7929 31.0503 54.7929 32.9497 53.6213 34.1213L35.6213 52.1213C34.4497 53.2929 32.5503 53.2929 31.3787 52.1213C30.2071 50.9497 30.2071 49.0503 31.3787 47.8787L47.2574 32L31.3787 16.1213C30.2071 14.9497 30.2071 13.0503 31.3787 11.8787Z" fill="#9CA3AF"/>
<path fill-rule="evenodd" clip-rule="evenodd" d="M9.5 32C9.5 30.3431 10.8431 29 12.5 29H49C50.6569 29 52 30.3431 52 32C52 33.6569 50.6569 35 49 35H12.5C10.8431 35 9.5 33.6569 9.5 32Z" fill="#9CA3AF"/>
</svg>
